<?xml version="1.0" standalone="no"?>
<!DOCTYPE svg PUBLIC "-//W3C//DTD SVG 20010904//EN"
 "http://www.w3.org/TR/2001/REC-SVG-20010904/DTD/svg10.dtd">
<svg version="1.0" xmlns="http://www.w3.org/2000/svg"
 width="512.000000pt" height="512.000000pt" viewBox="0 0 512.000000 512.000000"
 preserveAspectRatio="xMidYMid meet">

<g transform="translate(0.000000,512.000000) scale(0.100000,-0.100000)"
fill="#000000" stroke="none">
<path d="M413 5106 c-195 -47 -362 -219 -402 -414 -8 -37 -11 -516 -11 -1600
0 -1684 -2 -1609 56 -1725 63 -125 169 -220 301 -270 57 -22 68 -22 703 -27
l645 -5 3 -236 2 -236 -141 -93 c-77 -52 -149 -105 -160 -118 -27 -35 -27
-198 0 -257 23 -51 79 -101 128 -114 53 -15 1993 -15 2046 0 49 13 105 63 128
114 27 59 27 222 0 257 -11 13 -83 66 -160 117 l-141 94 0 98 c0 96 -1 98 -31
128 -42 42 -95 43 -141 2 l-33 -29 -3 -145 c-3 -141 -3 -144 22 -174 13 -16
86 -69 160 -119 119 -78 136 -92 136 -116 l0 -28 -960 0 -960 0 0 28 c0 24 17
38 136 116 74 50 146 103 160 119 l24 29 0 284 0 284 1373 0 c1486 0 1416 -2
1531 54 137 68 245 205 281 358 22 93 22 656 0 698 -33 65 144 60 -2273 60
-1542 0 -2208 -3 -2230 -11 -66 -23 -86 -110 -38 -166 l24 -28 2159 -5 2158
-5 0 -240 c0 -207 -3 -247 -18 -293 -25 -70 -101 -152 -169 -183 l-53 -24
-2105 0 -2105 0 -53 24 c-68 31 -144 113 -169 183 -17 51 -18 126 -18 1608 l0
1555 26 55 c37 80 81 125 157 162 l67 33 1073 5 1074 5 24 28 c48 56 28 143
-38 166 -48 17 -2116 13 -2185 -3z"/>
<path d="M3645 4991 c-51 -23 -101 -79 -114 -128 -6 -21 -11 -80 -11 -131 l0
-93 -46 -21 -46 -20 -72 70 c-85 84 -121 104 -191 104 -79 1 -127 -28 -238
-140 -105 -107 -127 -146 -127 -219 1 -68 28 -118 104 -193 36 -35 66 -70 66
-78 0 -7 -9 -31 -20 -52 l-20 -40 -103 0 c-119 0 -164 -16 -214 -73 -44 -51
-53 -91 -53 -252 0 -155 11 -194 66 -249 45 -45 89 -59 206 -64 l107 -5 17
-44 17 -44 -71 -72 c-39 -40 -78 -89 -87 -109 -20 -50 -19 -124 4 -173 27 -60
227 -250 277 -264 95 -27 149 -8 244 85 42 41 83 74 92 74 9 0 32 -7 52 -15
l36 -15 0 -103 c0 -113 15 -160 66 -211 47 -47 88 -59 220 -64 199 -7 280 23
329 121 22 45 25 64 25 154 l0 103 36 15 c20 8 43 15 52 15 9 0 50 -33 92 -74
95 -93 149 -112 244 -85 50 14 250 204 277 264 23 49 24 123 4 173 -9 20 -48
69 -87 109 l-71 72 17 44 17 44 107 5 c117 5 161 19 206 64 55 55 66 94 66
249 0 161 -9 201 -53 252 -50 57 -95 73 -214 73 l-103 0 -20 40 c-11 21 -20
45 -20 52 0 8 30 43 66 78 76 75 103 125 104 193 0 73 -22 112 -127 219 -111
112 -159 141 -238 140 -70 0 -106 -20 -191 -104 l-72 -70 -46 20 -46 21 0 93
c0 114 -12 158 -53 205 -55 63 -91 73 -267 73 -129 0 -162 -4 -195 -19z m305
-330 c0 -161 7 -177 88 -207 26 -9 86 -34 133 -55 47 -22 94 -39 103 -39 31 0
60 21 153 113 l93 92 75 -75 75 -75 -89 -90 c-49 -49 -94 -100 -100 -112 -18
-35 -13 -70 18 -131 15 -31 38 -87 50 -124 15 -45 32 -76 52 -93 29 -24 35
-25 170 -25 l139 0 0 -104 0 -104 -139 -4 c-169 -4 -182 -10 -218 -108 -13
-36 -37 -96 -54 -133 -47 -102 -41 -120 76 -237 l95 -95 -75 -75 -74 -74 -100
97 c-93 91 -103 97 -141 97 -25 0 -63 -11 -98 -29 -31 -15 -87 -38 -124 -50
-103 -34 -108 -44 -108 -212 l0 -139 -110 0 -110 0 0 139 c0 168 -5 178 -108
212 -37 12 -92 34 -122 49 -105 53 -122 48 -241 -67 l-100 -97 -74 74 -75 75
89 90 c122 124 129 141 89 225 -11 25 -35 83 -53 130 -45 120 -52 124 -226
128 l-139 4 0 103 0 104 144 3 c136 3 146 4 170 27 14 13 35 54 47 90 12 36
35 92 50 123 31 61 36 96 18 131 -6 12 -51 63 -100 112 l-89 90 75 75 75 75
93 -92 c93 -92 122 -113 153 -113 9 0 56 17 103 39 47 21 107 46 133 55 81 30
88 46 88 207 l0 139 110 0 110 0 0 -139z"/>
<path d="M3750 4149 c-162 -32 -306 -187 -329 -356 -8 -57 -1 -139 17 -200 30
-96 122 -195 227 -245 65 -31 77 -33 175 -33 98 0 110 2 175 33 219 103 308
349 206 568 -82 176 -275 271 -471 233z m195 -233 c122 -66 141 -244 35 -340
-144 -130 -364 -16 -348 179 13 152 175 236 313 161z"/>
<path d="M994 4021 c-21 -16 -132 -122 -245 -237 -142 -144 -208 -218 -211
-236 -11 -62 1 -79 211 -292 227 -230 270 -266 313 -266 84 0 137 92 92 160
-9 14 -94 103 -188 198 l-171 172 171 173 c94 94 179 183 188 197 44 66 -5
160 -83 160 -26 0 -50 -9 -77 -29z"/>
<path d="M1652 4034 c-12 -8 -29 -29 -38 -45 -30 -59 -16 -80 184 -282 l187
-187 -182 -183 c-99 -100 -186 -193 -193 -206 -31 -61 27 -141 103 -141 40 0
45 5 278 238 242 241 258 263 244 320 -7 30 -431 463 -477 488 -35 18 -78 18
-106 -2z"/>
</g>
</svg>
